<?xml version="1.0" encoding="UTF-8"?>
<svg width="113px" height="109px" viewBox="0 0 113 109" version="1.1" xmlns="http://www.w3.org/2000/svg" xmlns:xlink="http://www.w3.org/1999/xlink">
    <defs>
        <polygon id="path-1" points="0.0165365854 0.000275252525 112.889206 0.000275252525 112.889206 108.80347 0.0165365854 108.80347"></polygon>
    </defs>
    <g id="Page-1" stroke="none" stroke-width="1" fill="none" fill-rule="evenodd">
        <g id="Desktop-HD" transform="translate(-790.000000, -1331.000000)">
            <g id="Group-10" transform="translate(221.000000, 1326.000000)">
                <g id="Group-8" transform="translate(539.000000, 5.000000)">
                    <g id="icon2" transform="translate(30.000000, 0.000000)">
                        <g id="newspaper">
                            <path d="M101.998752,88 C101.662002,87.988147 101.329137,87.9569983 101.000986,87.9106888 C98.5488743,87.5608865 96.4066049,86.2653225 94.9558644,84.4068773 C95.0759736,84.5598641 95.1974696,84.7106457 95.3275647,84.8570168 C95.1974696,84.7106457 95.0759736,84.5598641 94.9547549,84.4068773 C94.9253517,84.3693886 94.8973355,84.3316243 94.8679324,84.2927574 C94.7508745,84.137841 94.6360358,83.9793411 94.528964,83.8180848 C94.6360358,83.9793411 94.7508745,84.137841 94.8679324,84.2927574 C93.6956897,82.7422153 93,80.8170624 93,78.7281721 L93,33 L111,33 L111,78.7281721 C111,83.7403509 106.999507,87.8224802 101.998752,88 Z" id="Fill-1" fill="#A5ABB0"></path>
                            <path d="M17,103.485584 C17,105.427304 18.479555,107 20.3033696,107 L48.6955427,107 C50.5212608,107 52,105.427304 52,103.48674 C52,101.545887 50.5212608,99.9720348 48.6955427,100.000377 L20.3033696,100.000377 C18.479555,99.9720348 17,101.545887 17,103.485584 Z" id="Fill-2" fill="#FF4F4F"></path>
                            <path d="M12,57 L12,93.9188015 C12,97.276573 14.7048584,100 18.0422043,100 L51.958901,100 C55.2951416,100 58,97.276573 58,93.9188015 L58,57 L12,57 Z" id="Fill-3" fill="#FF6A81"></path>
                            <path d="M92.1386927,77.769851 L92.1386927,2 L29,2 L29,56.9567807 L57.6830912,56.9567807 L57.6830912,87 L100.666209,87 C100.778201,87 100.8891,86.9956136 101,86.9912271 C96.0758982,86.8146733 92.1386927,82.7547565 92.1386927,77.769851 Z" id="Fill-4" fill="#FFFFFF"></path>
                            <polygon id="Fill-5" fill="#B06D5D" points="37 27 84 27 84 14 37 14"></polygon>
                            <path d="M83.7923631,29 L37.2076369,29 C35.9884694,29 35,28.0082733 35,26.7850884 L35,14.2149116 C35,12.9917267 35.9884694,12 37.2076369,12 L83.7923631,12 C85.0115306,12 86,12.9917267 86,14.2149116 L86,26.7850884 C86,28.0082733 85.0115306,29 83.7923631,29 Z M39.4152738,24.5701769 L81.5847262,24.5701769 L81.5847262,16.4298231 L39.4152738,16.4298231 L39.4152738,24.5701769 Z" id="Fill-6" fill="#000000"></path>
                            <polygon id="Fill-7" fill="#5396A8" points="37 47 58 47 58 36 37 36"></polygon>
                            <path d="M84.7174533,39 L68.2825467,39 C67.0220103,39 66,37.880625 66,36.5 C66,35.119375 67.0220103,34 68.2825467,34 L84.7174533,34 C85.9779897,34 87,35.119375 87,36.5 C87,37.880625 85.9779897,39 84.7174533,39 Z" id="Fill-8" fill="#000000"></path>
                            <path d="M83.5,60 C83.3378125,60 83.1728125,59.9828026 83.010625,59.951222 C82.851875,59.9205794 82.694375,59.8730521 82.543125,59.8092655 C82.3915625,59.7470423 82.2475,59.6701231 82.1134375,59.5797587 C81.9753125,59.4868929 81.8471875,59.3830833 81.7325,59.2670792 C81.6178125,59.1523259 81.5128125,59.025378 81.42,58.8859229 C81.3296875,58.7517834 81.2528125,58.6076382 81.190625,58.4559886 C81.1271875,58.3046517 81.079375,58.1470613 81.0478125,57.9882201 C81.0146875,57.8259394 81,57.6608446 81,57.498564 C81,57.3372214 81.0146875,57.1711885 81.0478125,57.0098459 C81.079375,56.8513174 81.1271875,56.6924762 81.190625,56.5433281 C81.2528125,56.3907405 81.3296875,56.2453445 81.42,56.1108924 C81.5128125,55.9730007 81.6153125,55.8460528 81.7325,55.7300487 C81.8471875,55.6149827 81.9753125,55.5099224 82.1134375,55.4208087 C82.2475,55.3291936 82.3915625,55.2522744 82.543125,55.1900512 C82.693125,55.127828 82.850625,55.079988 83.010625,55.0471567 C83.8225,54.8845633 84.6865625,55.1497156 85.2678125,55.7300487 C85.3825,55.8460528 85.4875,55.9730007 85.5778125,56.1108924 C85.668125,56.2453445 85.745,56.3907405 85.8071875,56.5433281 C85.869375,56.6937269 85.9171875,56.8513174 85.95,57.0098459 C85.981875,57.1711885 86,57.3372214 86,57.498564 C86,57.6608446 85.981875,57.8259394 85.95,57.9882201 C85.9171875,58.1470613 85.869375,58.3046517 85.8071875,58.4559886 C85.745,58.6076382 85.668125,58.7517834 85.5778125,58.8859229 C85.4875,59.025378 85.3825,59.1523259 85.2678125,59.2670792 C85.1528125,59.3830833 85.0246875,59.4868929 84.886875,59.5797587 C84.7525,59.6701231 84.6071875,59.7470423 84.4546875,59.8092655 C84.305625,59.8730521 84.1471875,59.9205794 83.9884375,59.951222 C83.8271875,59.9828026 83.6625,60 83.5,60 Z" id="Fill-9" fill="#000000"></path>
                            <g id="Group-13">
                                <mask id="mask-2" fill="white">
                                    <use xlink:href="#path-1"></use>
                                </mask>
                                <g id="Clip-11"></g>
                                <path d="M83.3223415,70.7842146 C83.1793,70.7842146 83.033778,70.7690758 82.8907366,70.7412753 C82.7496244,70.7109975 82.6107171,70.6702601 82.4784244,70.6154848 C82.3447537,70.5604343 82.2176976,70.4916212 82.099461,70.4131742 C81.9776415,70.3325253 81.8646415,70.2411414 81.7634927,70.1390227 C81.6623439,70.0380051 81.569739,69.9240505 81.4878829,69.8045909 C81.4082317,69.6832045 81.3404317,69.5552121 81.2855854,69.4241919 C81.2296366,69.2917955 81.1874683,69.1541692 81.1596317,69.0121389 C81.1304171,68.8714848 81.1174634,68.7261515 81.1174634,68.5821944 C81.1174634,68.4382374 81.1304171,68.2940051 81.1596317,68.151149 C81.1874683,68.0124217 81.2296366,67.8736944 81.2855854,67.739096 C81.3404317,67.6069747 81.4082317,67.4800833 81.4878829,67.3606237 C81.569739,67.2403384 81.660139,67.1274848 81.7612878,67.0253662 C81.8646415,66.9221465 81.9776415,66.8318636 82.0961537,66.7501136 C82.2176976,66.6716667 82.3447537,66.6036793 82.4784244,66.547803 C82.6107171,66.4930278 82.7496244,66.4511894 82.8907366,66.4231136 C83.1748902,66.3650354 83.4678634,66.3650354 83.7531195,66.4231136 C83.8931293,66.4511894 84.0328634,66.4930278 84.1643293,66.547803 C84.2988268,66.6036793 84.4269854,66.6716667 84.5454976,66.7501136 C84.6670415,66.8318636 84.7800415,66.9221465 84.8814659,67.0253662 C84.9826146,67.1274848 85.0752195,67.2403384 85.1548707,67.3606237 C85.234522,67.4800833 85.302322,67.6069747 85.3571683,67.739096 C85.4120146,67.8736944 85.4541829,68.0124217 85.483122,68.151149 C85.5112341,68.2940051 85.5272195,68.4382374 85.5272195,68.5821944 C85.5272195,68.7261515 85.5112341,68.8714848 85.483122,69.0121389 C85.4541829,69.1541692 85.4120146,69.2917955 85.3571683,69.4241919 C85.302322,69.5552121 85.234522,69.6832045 85.1548707,69.8045909 C85.0752195,69.9240505 84.9826146,70.0380051 84.8814659,70.1390227 C84.4710829,70.5485985 83.9027756,70.7842146 83.3223415,70.7842146 Z" id="Fill-10" fill="#000000" mask="url(#mask-2)"></path>
                                <path d="M110.685429,30.4123763 L95.0057146,30.4123763 L95.0057146,2.20229545 C95.0057146,0.986229798 94.017378,0.000275252525 92.8008366,0.000275252525 L29.0939171,0.000275252525 C27.8765488,0.000275252525 26.889039,0.986229798 26.889039,2.20229545 L26.889039,55.1765707 L12.1527366,55.1765707 C10.9350927,55.1765707 9.94785854,56.1636263 9.94785854,57.3785909 L9.94785854,64.1652172 L5.66929268,64.1652172 C2.54305122,64.1652172 0,66.7049722 0,69.8271616 L0,82.4931818 C0,85.6156465 2.54305122,88.1551263 5.66929268,88.1551263 L9.94785854,88.1551263 L9.94785854,93.9205657 C9.94785854,97.3719571 12.0890707,100.333949 15.114439,101.550015 C14.939978,102.094189 14.8484756,102.668366 14.8484756,103.257682 C14.8484756,106.315462 17.3397122,108.80347 20.401461,108.80347 L49.1781512,108.80347 C52.2410024,108.80347 54.732239,106.315462 54.732239,103.257682 C54.732239,102.739381 54.6622341,102.231816 54.5255317,101.747922 C57.8372585,100.68352 60.2400244,97.5772955 60.2400244,93.9205657 L60.2400244,89.7466364 L101.405098,89.7466364 C101.526641,89.7466364 101.648185,89.7422323 101.768902,89.7378283 L101.818512,89.7359015 C101.823749,89.7359015 101.830363,89.7348005 101.8356,89.7348005 C108.035717,89.5057904 112.889206,84.4747247 112.889206,78.2763131 L112.889206,32.6143965 C112.889206,31.3972298 111.903073,30.4123763 110.685429,30.4123763 Z M5.66929268,83.7510859 C4.97503171,83.7510859 4.4097561,83.1876439 4.4097561,82.4931818 L4.4097561,69.8271616 C4.4097561,69.1326995 4.97503171,68.5692576 5.66929268,68.5692576 L9.94785854,68.5692576 L9.94785854,83.7510859 L5.66929268,83.7510859 Z M49.1781512,104.399429 L20.401461,104.399429 C19.7716927,104.399429 19.2582317,103.887735 19.2582317,103.257682 C19.2582317,102.949949 19.3767439,102.666164 19.5919951,102.453394 C19.7094049,102.339439 19.9569024,102.150066 20.327322,102.141533 L49.2274854,102.141533 C49.611961,102.145662 49.8691049,102.336136 49.9887195,102.453394 C50.2039707,102.666164 50.3224829,102.951051 50.3224829,103.257682 C50.3224829,103.887735 49.8101244,104.399429 49.1781512,104.399429 Z M55.8302683,93.9205657 C55.8302683,96.024596 54.1165268,97.7374924 52.0094902,97.7374924 L18.1794951,97.7374924 C16.0713561,97.7374924 14.3576146,96.024596 14.3576146,93.9205657 L14.3576146,59.5806111 L55.8302683,59.5817121 L55.8302683,93.9205657 Z M60.2400244,85.3414949 L60.2400244,70.7842146 L75.1640171,70.7842146 C76.381661,70.7842146 77.3688951,69.7982601 77.3688951,68.5821944 C77.3688951,67.3661288 76.381661,66.3801742 75.1640171,66.3801742 L60.2400244,66.3801742 L60.2400244,59.5817121 L75.1640171,59.5817121 C76.381661,59.5817121 77.3688951,58.5957576 77.3688951,57.3796919 C77.3688951,56.1636263 76.381661,55.1776717 75.1640171,55.1776717 L31.2987951,55.1776717 L31.2987951,4.40431566 L90.5959585,4.40431566 L90.5959585,78.2763131 C90.5959585,80.9437854 91.4949976,83.3951843 93.0127805,85.3414949 L60.2400244,85.3414949 Z M108.480551,78.2763131 C108.480551,82.0695682 105.527393,85.1543232 101.742995,85.3307601 C101.522232,85.320851 101.295129,85.2982803 101.06472,85.2649747 C101.03578,85.260846 101.008771,85.2575429 100.979832,85.2553409 C97.5680585,84.7307096 95.0057146,81.8113813 95.0057146,78.2763131 L95.0057146,34.8164167 L108.480551,34.8164167 L108.480551,78.2763131 Z" id="Fill-12" fill="#000000" mask="url(#mask-2)"></path>
                            </g>
                            <path d="M83.7923631,45.6016013 L59.9965208,45.6016013 L59.9965208,36.1991994 C59.9965208,34.9846915 59.0091552,34 57.7888839,34 L37.2076369,34 C35.9884694,34 35,34.9846915 35,36.1991994 L35,47.8008006 C35,49.0153085 35.9884694,50 37.2076369,50 L83.7923631,50 C85.0115306,50 86,49.0153085 86,47.8008006 C86,46.5862928 85.0115306,45.6016013 83.7923631,45.6016013 Z M39.4152738,45.6016013 L55.581247,45.6016013 L55.581247,38.3983987 L39.4152738,38.3983987 L39.4152738,45.6016013 Z" id="Fill-14" fill="#000000"></path>
                        </g>
                    </g>
                </g>
            </g>
        </g>
    </g>
</svg>