<?xml version="1.0" encoding="UTF-8"?>
<svg width="87px" height="107px" viewBox="0 0 87 107" version="1.1" xmlns="http://www.w3.org/2000/svg" xmlns:xlink="http://www.w3.org/1999/xlink">
    <defs>
        <polygon id="path-1" points="0.012495337 0 86.8669577 0 86.8669577 107 0.012495337 107"></polygon>
    </defs>
    <g id="Page-1" stroke="none" stroke-width="1" fill="none" fill-rule="evenodd">
        <g id="Desktop-HD" transform="translate(-245.000000, -1334.000000)">
            <g id="Group-10" transform="translate(221.000000, 1326.000000)">
                <g id="Group-6" transform="translate(0.000000, 8.000000)">
                    <g id="icon4" transform="translate(24.000000, 0.000000)">
                        <g id="report">
                            <path d="M75.2627119,89.0889453 L75.2627119,2.72033898 L2.72033898,2.72033898 L2.72033898,97.2998691 C2.72033898,102.111829 6.56543411,106.021783 11.3353413,106.09322" id="Fill-1" fill="#EAECF0"></path>
                            <g id="Group-5">
                                <mask id="mask-2" fill="white">
                                    <use xlink:href="#path-1"></use>
                                </mask>
                                <g id="Clip-3"></g>
                                <path d="M76.3550473,87.9953789 L10.5591845,87.9953789 C15.214114,87.9962148 18.987914,91.7825937 18.987914,96.4527676 C18.987914,101.12315 15.214114,104.90932 10.5583515,104.910156 L76.3550473,104.910156 C80.4591407,104.910156 83.8766154,101.968074 84.6282099,98.0740684 C84.7306716,97.5490996 84.7844016,97.0072031 84.7844016,96.4536035 C84.7844016,91.7825937 81.0106016,87.9953789 76.3550473,87.9953789 Z" id="Fill-2" fill="#BBB8C7" mask="url(#mask-2)"></path>
                                <path d="M76.465631,85.9055352 L76.465631,2.08984375 C76.465631,0.935623047 75.5332706,0 74.3830749,0 L2.08255616,0 C0.932360393,0 0,0.935623047 0,2.08984375 L0,96.1622793 C0,101.959088 4.62723153,106.760713 10.3688389,106.991014 C10.4315238,106.996656 10.4950418,107 10.5591845,107 L76.3550473,107 C81.379214,107 85.718428,103.413828 86.6726553,98.4757363 C86.801149,97.8145098 86.8669577,97.1344746 86.8669577,96.4536035 C86.8669577,90.6747676 82.2114035,85.9661406 76.465631,85.9055352 Z M10.6812223,102.818641 C7.08631384,102.754273 4.16511232,99.7720664 4.16511232,96.1622793 L4.16511232,4.1796875 L72.3013517,4.1796875 L72.3013517,85.9055352 L10.5591845,85.9055352 C9.40898873,85.9055352 8.47662834,86.8411582 8.47662834,87.994752 C8.47662834,89.1489727 9.40898873,90.0845957 10.5591845,90.0852227 C14.0580871,90.0860586 16.9053579,92.942457 16.9053579,96.4527676 C16.9053579,99.9214902 14.1247289,102.752602 10.6812223,102.818641 Z M82.5839728,97.6765801 C82.0079377,100.656906 79.3884986,102.820313 76.3550473,102.820313 L18.932518,102.820313 C20.2741007,101.049588 21.0704702,98.8422949 21.0704702,96.4527676 C21.0704702,94.0626133 20.2732677,91.8559473 18.932518,90.0852227 L76.3550473,90.0852227 C79.8545746,90.0852227 82.7018454,92.9416211 82.7018454,96.4536035 C82.7018454,96.8650938 82.6620686,97.275748 82.5839728,97.6765801 Z" id="Fill-4" fill="#000000" mask="url(#mask-2)"></path>
                            </g>
                            <path d="M25.9423817,16.3237133 C25.9096427,16.3237133 25.8760642,16.3220339 25.8431154,16.3220339 C17.0789338,16.3220339 9.97457627,23.4265447 9.97457627,32.190678 C9.97457627,40.9539716 17.0789338,48.059322 25.8431154,48.059322 C34.6066674,48.059322 41.7118644,40.9539716 41.7118644,32.190678 L25.9423817,32.190678 L25.9423817,16.3237133 Z" id="Fill-6" fill="#FFD36C"></path>
                            <path d="M25.8435301,49.8728814 C16.0933941,49.8728814 8.16101695,41.9409695 8.16101695,32.1910911 C8.16101695,22.4412128 16.0933941,14.5084746 25.8435301,14.5084746 L25.9542356,14.5101273 C27.0893797,14.5181842 28.0066241,15.4405956 28.0066241,16.5759983 L28.0066241,30.1252201 L41.4608494,30.1252201 C42.6007439,30.1252201 43.5254237,31.0501106 43.5254237,32.1910911 C43.5254237,41.9409695 35.5936662,49.8728814 25.8435301,49.8728814 Z M23.8758231,18.7831749 C17.3334605,19.7378139 12.2918179,25.3867317 12.2918179,32.1910911 C12.2918179,39.6621072 18.3711177,45.7411393 25.8435301,45.7411393 C32.6134999,45.7411393 38.2400639,40.7516475 39.2380654,34.2569622 L25.9412236,34.2569622 C24.8005029,34.2569622 23.8758231,33.3322783 23.8758231,32.1910911 L23.8758231,18.7831749 Z" id="Fill-7" fill="#000000"></path>
                            <path d="M33.5508475,9.06779661 L33.5508475,25.3898305 L48.9661017,25.3898305 C48.9661017,16.4088897 42.0740042,9.12350911 33.5508475,9.06779661 Z" id="Fill-8" fill="#0082A0"></path>
                            <path d="M48.6827521,27.2033898 L32.9274174,27.2033898 C31.7690849,27.2033898 30.8305085,26.2692322 30.8305085,25.116353 L30.8305085,9.34127652 C30.8305085,8.78612472 31.0532002,8.25288681 31.4497257,7.86156741 C31.8454124,7.4696219 32.3801242,7.25340488 32.9404182,7.25423729 C42.7770179,7.31538988 50.779661,15.3277329 50.779661,25.116353 C50.779661,26.2692322 49.8410846,27.2033898 48.6827521,27.2033898 Z M35.0243263,23.0293162 L46.4254297,23.0293162 C45.5201941,17.1937525 40.8816219,12.5461303 35.0243263,11.6027896 L35.0243263,23.0293162 Z" id="Fill-9" fill="#000000"></path>
                            <path d="M65.981755,16.3220339 L55.5267196,16.3220339 C54.4073623,16.3220339 53.5,15.5102847 53.5,14.5084746 C53.5,13.5068458 54.4073623,12.6949153 55.5267196,12.6949153 L65.981755,12.6949153 C67.1011122,12.6949153 68.0084746,13.5068458 68.0084746,14.5084746 C68.0084746,15.5102847 67.1011122,16.3220339 65.981755,16.3220339 Z" id="Fill-10" fill="#000000"></path>
                            <path d="M65.981755,25.3898305 L55.5267196,25.3898305 C54.4073623,25.3898305 53.5,24.5780814 53.5,23.5762712 C53.5,22.5746424 54.4073623,21.7627119 55.5267196,21.7627119 L65.981755,21.7627119 C67.1011122,21.7627119 68.0084746,22.5746424 68.0084746,23.5762712 C68.0084746,24.5780814 67.1011122,25.3898305 65.981755,25.3898305 Z" id="Fill-11" fill="#000000"></path>
                            <path d="M65.981755,34.4576271 L55.5267196,34.4576271 C54.4073623,34.4576271 53.5,33.6456966 53.5,32.6440678 C53.5,31.6422576 54.4073623,30.8305085 55.5267196,30.8305085 L65.981755,30.8305085 C67.1011122,30.8305085 68.0084746,31.6422576 68.0084746,32.6440678 C68.0084746,33.6456966 67.1011122,34.4576271 65.981755,34.4576271 Z" id="Fill-12" fill="#000000"></path>
                            <path d="M65.0616957,42.6186441 L46.4722026,42.6186441 C45.345511,42.6186441 44.4322034,41.8067136 44.4322034,40.8050847 C44.4322034,39.8032746 45.345511,38.9915254 46.4722026,38.9915254 L65.0616957,38.9915254 C66.1883873,38.9915254 67.1016949,39.8032746 67.1016949,40.8050847 C67.1016949,41.8067136 66.1883873,42.6186441 65.0616957,42.6186441 Z" id="Fill-13" fill="#000000"></path>
                            <path d="M65.2877728,57.1271186 C65.1702307,57.1271186 65.0503304,57.1142459 64.9342394,57.0910387 C64.817967,57.0676503 64.7038713,57.0328395 64.5955801,56.987513 C64.4842053,56.9421864 64.3793606,56.8863442 64.2815902,56.821074 C64.1816431,56.7559851 64.0889517,56.6794739 64.0060554,56.5958919 C63.9224336,56.5123098 63.8458861,56.4202063 63.7805849,56.3204879 C63.7154651,56.2225826 63.6594149,56.1170625 63.6140669,56.0066471 C63.5687188,55.8982261 63.5340729,55.7836406 63.5106733,55.6681487 C63.4865482,55.5519315 63.4745763,55.4322695 63.4745763,55.3140579 C63.4745763,55.1943959 63.4865482,55.0767283 63.5106733,54.9592419 C63.5340729,54.8430247 63.5687188,54.7304337 63.6140669,54.6200183 C63.6594149,54.510872 63.7154651,54.4060771 63.7805849,54.3083531 C63.8458861,54.2084535 63.9224336,54.1156248 64.0060554,54.0320427 C64.0889517,53.9491858 64.1816431,53.8728559 64.2815902,53.8054101 C64.3793606,53.7403212 64.4842053,53.6842976 64.5955801,53.6389711 C64.7038713,53.5936446 64.817967,53.5590151 64.9342394,53.5356266 C65.1687795,53.4881245 65.4074917,53.4881245 65.6434829,53.5356266 C65.7583042,53.5590151 65.8723999,53.5936446 65.9828678,53.6389711 C66.0920659,53.6842976 66.1969106,53.7403212 66.294681,53.8054101 C66.3946281,53.8728559 66.4873195,53.9491858 66.5702157,54.0320427 C66.6538375,54.1156248 66.7303851,54.2084535 66.796956,54.3083531 C66.8629828,54.4060771 66.9188516,54.510872 66.9641996,54.6200183 C67.0095477,54.7304337 67.044375,54.8430247 67.0677746,54.9592419 C67.0909928,55.0767283 67.1016949,55.1943959 67.1016949,55.3140579 C67.1016949,55.4322695 67.0909928,55.5519315 67.0677746,55.6681487 C67.044375,55.7836406 67.0095477,55.8982261 66.9641996,56.0066471 C66.9188516,56.1170625 66.8629828,56.2225826 66.796956,56.3204879 C66.7303851,56.4202063 66.6538375,56.5123098 66.5702157,56.5958919 C66.4873195,56.6794739 66.3946281,56.7559851 66.294681,56.821074 C66.1969106,56.8863442 66.0920659,56.9421864 65.9828678,56.987513 C65.8723999,57.0328395 65.7583042,57.0676503 65.6434829,57.0910387 C65.5259408,57.1142459 65.4060405,57.1271186 65.2877728,57.1271186 Z" id="Fill-14" fill="#000000"></path>
                            <path d="M56.8721926,57.1271186 L10.2295023,57.1271186 C9.08790524,57.1271186 8.16101695,56.3144627 8.16101695,55.3135593 C8.16101695,54.3117492 9.08790524,53.5 10.2295023,53.5 L56.8721926,53.5 C58.0148239,53.5 58.940678,54.3117492 58.940678,55.3135593 C58.940678,56.3144627 58.0148239,57.1271186 56.8721926,57.1271186 Z" id="Fill-15" fill="#000000"></path>
                            <polygon id="Fill-16" fill="#F26A5B" points="64.3813559 71.1827151 48.8776766 61.6610169 48.8776766 65.9037773 10.8813559 65.9037773 10.8813559 76.4608342 48.8776766 76.4608342 48.8776766 80.7033898"></polygon>
                            <path d="M66.1025398,68.9539302 L50.2423734,59.2512497 C49.592691,58.8545153 48.7769038,58.8365767 48.1108004,59.2049432 C47.444697,59.5731011 47.031014,60.2697851 47.031014,61.026751 L47.031014,63.2642747 L10.2662742,63.2642747 C9.10438274,63.2642747 8.16101695,64.1979147 8.16101695,65.3501549 L8.16101695,76.1078736 C8.16101695,77.2599052 9.10438274,78.1937538 10.2662742,78.1937538 L47.031014,78.1937538 L47.031014,80.4310689 C47.031014,81.1872005 47.4438549,81.8847189 48.1108004,82.2530853 C48.4299574,82.4291336 48.7834301,82.5169492 49.1362713,82.5169492 C49.5202702,82.5169492 49.9042691,82.4126551 50.2423734,82.2057358 L66.1025398,72.5040983 C66.7233802,72.1234252 67.1016949,71.4521889 67.1016949,70.7285971 C67.1016949,70.0058396 66.7233802,69.3343947 66.1025398,68.9539302 Z M51.2415286,76.6921286 L51.2415286,76.1087079 C51.2415286,74.9564677 50.2990049,74.0228277 49.1362713,74.0228277 L12.3715315,74.0228277 L12.3715315,67.4360351 L47.031014,67.4360351 L47.031014,69.0534267 C47.031014,70.2054583 47.9735377,71.1393069 49.1362713,71.1393069 C50.2990049,71.1393069 51.2415286,70.2054583 51.2415286,69.0534267 L51.2415286,64.7658999 L60.9890804,70.7294314 L51.2415286,76.6921286 Z" id="Fill-17" fill="#000000"></path>
                        </g>
                    </g>
                </g>
            </g>
        </g>
    </g>
</svg>