<?xml version="1.0" encoding="UTF-8"?>
<svg width="94px" height="113px" viewBox="0 0 94 113" version="1.1" xmlns="http://www.w3.org/2000/svg" xmlns:xlink="http://www.w3.org/1999/xlink">
    <g id="Page-1" stroke="none" stroke-width="1" fill="none" fill-rule="evenodd">
        <g id="Desktop-HD" transform="translate(-510.000000, -1326.000000)">
            <g id="Group-10" transform="translate(221.000000, 1326.000000)">
                <g id="Group-7" transform="translate(220.000000, 0.000000)">
                    <g id="icon3" transform="translate(69.000000, 0.000000)">
                        <g id="analysis-(1)">
                            <polygon id="Fill-1" fill="#FFFFFF" points="81 24.3804135 81 111 1 111 1 6 62.4827016 6"></polygon>
                            <polygon id="Fill-2" fill="#E1EAF8" points="81 24.1635 81 111 74 111 74 17"></polygon>
                            <polygon id="Fill-3" fill="#E1EAF8" points="62.1447554 24.8554701 81 25 62 6"></polygon>
                            <polygon id="Fill-4" fill="#76FFD9" points="46.623063 13 40.376937 13 39 1 48 1"></polygon>
                            <path d="M28.654695,98.3442642 C25.1906899,94.8802899 22.6015008,90.7745678 21,86.2951951 L34.2020703,81 C35.0700119,83.6758708 36.5650712,86.1914156 38.6872483,88.3126868 C40.8096471,90.4339581 43.3243272,91.9298912 46,92.7980468 L40.7047579,106 C36.2255672,104.398292 32.1187,101.808238 28.654695,98.3442642 Z" id="Fill-5" fill="#76FFD9"></path>
                            <polygon id="Fill-6" fill="#76FFD9" points="14 28 23 28 23 19 14 19"></polygon>
                            <path d="M41.3666085,56 L12.7014597,56 C11.8072324,56 11.0271246,56.8437333 11.0007726,57.9384 C10.9726782,59.0706667 11.7144557,60 12.6332929,60 L41.3666085,60 C42.2682406,60 43,59.104 43,58 C43,56.8946667 42.2682406,56 41.3666085,56 Z" id="Fill-7" fill="#969BA1"></path>
                            <path d="M12.7014597,52 L41.3666085,52 C42.2682406,52 43,51.104 43,50 C43,48.8946667 42.2682406,48 41.3666085,48 L12.6332929,48 C11.7144557,48 10.9726782,48.928 11.0007726,50.0613333 C11.0271246,51.1562667 11.8072324,52 12.7014597,52 Z" id="Fill-8" fill="#969BA1"></path>
                            <path d="M12.7014597,43 L41.3666085,43 C42.2682406,43 43,42.1042667 43,41 C43,39.8949333 42.2682406,39 41.3666085,39 L12.6332929,39 C11.7144557,39 10.9726782,39.9282667 11.0007726,41.0616 C11.0271246,42.1552 11.8072324,43 12.7014597,43 Z" id="Fill-9" fill="#969BA1"></path>
                            <path d="M39.2901685,87.7093972 C37.4243541,85.8429169 36.0672986,83.6320748 35.2582384,81.1369315 C35.1177324,80.7035749 34.8034023,80.3482531 34.3917482,80.1555771 C33.9789982,79.9622435 33.5055302,79.948434 33.0824779,80.1178749 L20.0325181,85.3521301 C19.2122787,85.6809288 18.7986519,86.5998114 19.0965421,87.4321103 C20.7832716,92.1490557 23.4592422,96.3609664 27.0492689,99.9512284 C30.6386381,103.540614 34.8505299,106.216377 39.5685501,107.903991 C39.7509229,107.969093 39.9383373,108 40.121587,108 C40.7758933,108 41.3914016,107.607853 41.647425,106.96823 L46.8816568,93.9173348 C47.051097,93.4951574 47.0383835,93.0208105 46.8448316,92.6089354 C46.6521564,92.1961835 46.2968363,91.881852 45.8634816,91.7415646 C43.3685686,90.9322815 41.1568597,89.5760967 39.2901685,87.7093972 Z M39.2011741,104.237667 C35.5372776,102.709191 32.2372499,100.489801 29.3740842,97.6264027 C26.5106992,94.7623473 24.2913182,91.4623049 22.763069,87.7992688 L32.7477624,83.7955973 C33.7374418,86.1125318 35.1760391,88.2446814 36.9655725,90.0350996 C38.7551059,91.824641 40.8879036,93.2630255 43.2050469,94.2529286 L39.2011741,104.237667 Z" id="Fill-10" fill="#434C54"></path>
                            <path d="M60.5687111,71.1337018 L57.2516543,71.1337018 C57.1736494,70.272787 56.4776889,69.5992439 55.6296296,69.5992439 C54.7292049,69.5992439 54,70.3584491 54,71.2944029 C54,73.075224 55.3921383,74.5240199 57.1039012,74.5240199 L57.870479,74.5240199 L57.870479,76.304841 C57.870479,77.2405688 58.5994667,78 59.5001086,78 C60.3996642,78 61.1297383,77.2405688 61.1297383,76.304841 L61.1297383,74.482432 C63.3084444,74.194707 65,72.2574792 65,69.9143174 C65,67.3724829 63.0122864,65.304841 60.5687111,65.304841 L58.430637,65.304841 C57.7846519,65.304841 57.2583901,64.7583217 57.2583901,64.0854566 C57.2583901,63.4134955 57.7846519,62.8662982 58.430637,62.8662982 L61.7476938,62.8662982 C61.8256988,63.7269869 62.5225284,64.4007561 63.3703704,64.4007561 C64.2701432,64.4007561 65,63.6413249 65,62.7055971 C65,60.924776 63.6072099,59.4759801 61.8960988,59.4759801 L61.1297383,59.4759801 L61.1297383,57.695159 C61.1297383,56.7592052 60.3996642,56 59.5001086,56 C58.5994667,56 57.870479,56.7592052 57.870479,57.695159 L57.870479,59.517342 C55.6915556,59.805293 54,61.7422947 54,64.0854566 C54,66.627291 55.9879309,68.695159 58.430637,68.695159 L60.5687111,68.695159 C61.2153481,68.695159 61.7407407,69.2416783 61.7407407,69.9143174 C61.7407407,70.5862785 61.214479,71.1337018 60.5687111,71.1337018 Z" id="Fill-11" fill="#434C54"></path>
                            <path d="M46.5181876,54.5166851 C53.6761013,47.358453 65.3238987,47.3575691 72.4838013,54.5166851 C79.643483,61.6755801 79.641715,73.3244199 72.4838013,80.4826519 C67.4390081,85.5275138 60.1659578,87.0183425 53.8038344,84.9533702 L48.527663,98.1111602 C52.0014279,99.3518232 55.7012671,100 59.5005525,100 C68.1804344,100 76.3425334,96.6194475 82.4810134,90.480884 C88.6186095,84.3429834 92,76.1809945 92,67.5009945 C92,58.8190055 88.6194935,50.6579006 82.4810134,44.519116 C76.3425334,38.3805525 68.1822024,35 59.4996685,35 C50.8197866,35 42.6576876,38.3814365 36.5198705,44.519116 C30.3813905,50.6579006 27,58.8198895 27,67.5001105 C27,71.2983425 27.6492729,74.999116 28.8896981,78.4729282 L42.0464252,73.1958011 C39.9823649,66.8344751 41.4733943,59.561547 46.5181876,54.5166851 Z" id="Fill-12" fill="#FFC843"></path>
                            <path d="M84.0176503,43.1318389 C83.6712263,42.7838568 83.3190689,42.4473929 82.9607372,42.1169096 L82.9607372,24.471714 C82.9607372,24.0313649 82.7867533,23.6091791 82.4764932,23.2968591 L64.0397203,4.77694591 C63.7296807,4.46551189 63.3093851,4.29074558 62.8699051,4.29074558 L48.2609969,4.29074558 L48.534211,1.84733974 C48.5866928,1.37753068 48.4376268,0.9068356 48.124059,0.55464493 C47.8104912,0.201568245 47.3617496,0 46.8907364,0 L38.5800868,0 C38.1088531,0 37.6601115,0.201568245 37.3465437,0.55464493 C37.0329759,0.9068356 36.8841304,1.37753068 36.9366122,1.84733974 L37.2096059,4.29074558 L1.65383867,4.29074558 C0.74069921,4.29074558 0,5.03411155 0,5.95202233 L0,18.5336464 C0,19.4506712 0.74069921,20.1949231 1.65383867,20.1949231 C2.56697812,20.1949231 3.30767733,19.4506712 3.30767733,18.5336464 L3.30767733,7.61329907 L37.5827119,7.61329907 L38.2080834,13.1976255 C38.3018009,14.0377885 39.0098644,14.6728392 39.851558,14.6728392 L45.6192652,14.6728392 C46.4607383,14.6728392 47.1688018,14.0377885 47.2627398,13.1976255 L47.8889934,7.61329907 L61.2290766,7.61329907 L61.3565324,24.3445709 C61.3633683,25.2522926 62.094806,25.9859124 62.9975814,25.9930005 L79.6530598,26.1210295 L79.6530598,39.4198822 C73.9274704,35.3176361 67.0916039,33.1043725 59.9163697,33.1043725 C49.568632,33.1043725 39.562908,38.0363709 33.155937,46.1808355 C31.6564567,48.0879812 30.3556574,50.1550525 29.2936725,52.3388562 C25.3054957,60.5431267 24.7584058,70.2979223 27.8155817,78.8975768 C27.9670734,79.3224206 28.2841694,79.6686307 28.6941008,79.8538076 C28.9095409,79.9506047 29.1410783,80 29.3728362,80 C29.5821019,80 29.7907061,79.9601294 29.9887257,79.8806096 L43.1168971,74.5913259 C43.9248524,74.2659372 44.3436043,73.3679617 44.0748004,72.5373234 C42.4915255,67.6372215 43.2564811,62.1820316 46.1213706,57.9431179 C46.6338401,57.1833607 46.4375846,56.150268 45.681229,55.6354937 C44.9257555,55.1207194 43.8972884,55.3178576 43.3839369,56.0767288 C40.2407614,60.7291897 39.2063404,66.6016923 40.5078012,72.0630842 L30.3979957,76.1358703 C29.5631379,73.2950871 29.1410783,70.3437735 29.1410783,67.3397422 C29.1410783,59.0834182 32.34291,51.3203828 38.1562631,45.4808842 C43.9689548,39.6422717 51.6963505,36.426926 59.9163697,36.426926 C68.137271,36.426926 75.8664308,39.6422717 81.6780199,45.4808842 C87.4907115,51.3197182 90.6923227,59.0825322 90.6923227,67.3406282 C90.6923227,68.258539 91.4323603,69.0019049 92.3461613,69.0019049 C93.2593008,69.0019049 94,68.258539 94,67.3406282 C94,58.1956319 90.4546109,49.5977495 84.0176503,43.1318389 Z M44.1411745,11.3502857 L41.3296488,11.3502857 L40.7075849,5.79896336 C40.7069234,5.78412262 40.7051593,5.7703894 40.7033952,5.75554866 L40.4304015,3.32255349 L45.0404217,3.32255349 L44.1411745,11.3502857 Z M64.6514201,22.6832942 L64.5548359,9.9935764 L77.2843218,22.7803128 L64.6514201,22.6832942 Z" id="Fill-13" fill="#434C54"></path>
                            <path d="M91.6793715,72.1200667 C90.7887644,71.9405266 89.9177093,72.5172114 89.7373471,73.4091916 C88.5464291,79.2889122 85.6544823,84.6632361 81.3721426,88.9510779 C75.5814387,94.7509295 67.8821027,97.9454685 59.6928667,97.9454685 C56.7132652,97.9454685 53.7861686,97.5243412 50.968915,96.6924277 L55.008282,86.6064944 C61.746272,88.2436984 68.8140108,86.2894388 73.7639763,81.3309617 C81.5232866,73.5596885 81.5232866,60.9159679 73.7639763,53.1446947 C70.4025604,49.7780964 65.9376617,47.7283461 61.1911254,47.3725661 C56.4970942,47.0192064 51.8261299,48.3367145 48.0383035,51.0810828 C47.3010372,51.6157429 47.1356136,52.6469988 47.6683522,53.3854017 C48.2021893,54.1235847 49.2320773,54.2894833 49.9691239,53.7557033 C56.5006091,49.0234116 65.7289599,49.7644549 71.4339863,55.478937 C77.9079137,61.9628455 77.9079137,72.5128109 71.4339863,78.9975995 C66.9983058,83.4401187 60.5243783,84.9906329 54.5388129,83.0456143 C53.7141116,82.7776242 52.8232848,83.1952311 52.500566,84.0005216 L47.2555622,97.1005735 C47.0883811,97.5166403 47.0987064,97.9833127 47.2823639,98.3923387 C47.4658017,98.8015847 47.8082922,99.1177602 48.2305288,99.2691372 C51.8981869,100.580705 55.7556538,101.245839 59.6928667,101.245839 C66.8403515,101.245839 73.6506183,99.0473523 79.3547659,94.9716143 L79.3547659,109.699629 L3.29529036,109.699629 L3.29529036,25.6501854 C3.29529036,24.7381829 2.557365,24 1.64764518,24 C0.737925354,24 0,24.7381829 0,25.6501854 L0,111.349815 C0,112.261817 0.737925354,113 1.64764518,113 L81.0024111,113 C81.9127899,113 82.6500562,112.261817 82.6500562,111.349815 L82.6500562,92.2928133 C83.007046,91.9645365 83.3587634,91.6300989 83.7030114,91.2846601 C88.4433964,86.5369666 91.646858,80.5824376 92.9667316,74.0659654 C93.1477529,73.172885 92.5719558,72.3013671 91.6793715,72.1200667 Z" id="Fill-14" fill="#434C54"></path>
                        </g>
                    </g>
                </g>
            </g>
        </g>
    </g>
</svg>