<?xml version="1.0" encoding="UTF-8"?>
<svg width="104px" height="104px" viewBox="0 0 104 104" version="1.1" xmlns="http://www.w3.org/2000/svg" xmlns:xlink="http://www.w3.org/1999/xlink">
    <defs>
        <polygon id="path-1" points="0.0120805921 0.00322149123 103.087719 0.00322149123 103.087719 103.087719 0.0120805921 103.087719"></polygon>
        <polygon id="path-3" points="0.0120906801 0.00258563536 79.9828715 0.00258563536 79.9828715 71.9542541 0.0120906801 71.9542541"></polygon>
    </defs>
    <g id="icon1" stroke="none" stroke-width="1" fill="none" fill-rule="evenodd">
        <g id="analytics">
            <path d="M31.4189034,2 C27.8737526,2 25,4.91188923 25,8.50408652 L25,90.6178994 L74.3474639,90.6178994 L74.3474639,95.4957102 C74.3474639,99.0881108 77.2214172,102 80.7667686,102 C84.3119194,102 87.1858726,99.0879075 87.1858726,95.4957102 L87.1858726,8.50388326 C87.1858726,5.48020155 89.2223333,2.93885358 91.9811439,2.21016986 L92,2 L31.4189034,2" id="Fill-1" fill="#FFFFFF"></path>
            <path d="M87,8.29509164 C87,4.81832191 89.9102628,2 93.5,2 C97.0899403,2 100,4.81832191 100,8.29509164 L100,26 L87,26 L87,8.29509164" id="Fill-2" fill="#EFA158"></path>
            <path d="M75.6383171,91.4688897 L75.6383171,87 L16,87 L16,93.5 C16,97.0899403 18.8481557,100 22.3612853,100 L82,100" id="Fill-3" fill="#EFA158"></path>
            <path d="M85.7986942,69 L99.4179218,82.6192276 C101.541938,84.7434418 101.525093,88.2358411 99.3804671,90.3804671 C97.2358411,92.5250932 93.7432436,92.5419379 91.6192276,90.4179218 L78,76.7986942 L85.7986942,69" id="Fill-4" fill="#DE4C59"></path>
            <path d="M66.5,38 C78.3741273,38 88,47.6258273 88,59.4998986 C88,71.3741727 78.3741273,81 66.5,81 C54.6258727,81 45,71.3741727 45,59.4998986 C45,47.6258273 54.6258727,38 66.5,38" id="Fill-5" fill="#A3D7DE"></path>
            <polygon id="Fill-6" fill="#6DB856" points="6 36 15 36 15 25 6 25"></polygon>
            <polygon id="Fill-7" fill="#00B5CB" points="23 37 32 37 32 13 23 13"></polygon>
            <polygon id="Fill-8" fill="#DE4C59" points="38 37 47 37 47 21 38 21"></polygon>
            <g id="Group-14">
                <mask id="mask-2" fill="white">
                    <use xlink:href="#path-1"></use>
                </mask>
                <g id="Clip-10"></g>
                <path d="M99.0576338,8.45943462 L99.0576338,24.5662867 L90.1987342,24.5662867 L90.1987342,8.45943462 C90.1987342,6.01694024 92.1857903,4.02988418 94.6280833,4.02988418 C97.0705777,4.02988418 99.0576338,6.01694024 99.0576338,8.45943462 Z M32.2110868,4.02988418 L87.4288558,4.02988418 C86.6327448,5.3190847 86.1720715,6.83620573 86.1720715,8.45943462 L86.1720715,34.8315685 C86.1720715,35.9433857 87.0734851,36.8450005 88.1853022,36.8450005 C89.2973207,36.8450005 90.1987342,35.9433857 90.1987342,34.8315685 L90.1987342,28.5929494 L101.070864,28.5929494 C102.182883,28.5929494 103.084296,27.6913346 103.084296,26.5797188 L103.084296,8.45943462 C103.084296,3.79652741 99.2909905,0.00322149123 94.6280833,0.00322149123 C94.2604306,0.00322149123 93.199956,0.00322149123 93.0175391,0.00322149123 L32.2110868,0.00322149123 C31.0990683,0.00322149123 30.1976547,0.904836349 30.1976547,2.01665351 C30.1976547,3.12826933 31.0990683,4.02988418 32.2110868,4.02988418 L32.2110868,4.02988418 Z" id="Fill-9" fill="#0A090B" mask="url(#mask-2)"></path>
                <path d="M98.0021927,89.9390015 C97.3260822,90.615112 96.4250714,90.9902144 95.4654697,90.9946439 C95.4596308,90.9948453 95.4535905,90.9948453 95.4475502,90.9948453 C94.5020425,90.9948453 93.6207633,90.6336356 92.9641831,89.976854 L80.5058712,77.5185421 C82.4478263,76.0986698 84.1632704,74.3868499 85.5871695,72.4477135 L98.0402466,84.9007906 C99.4186421,86.2795888 99.4017293,88.5396663 98.0021927,89.9390015 Z M81.7425211,99.0608553 C79.2998254,99.0608553 77.312568,97.0735979 77.312568,94.6309021 L77.312568,93.0080759 C77.312568,92.9422367 77.3089438,92.8772029 77.3027022,92.8129744 C77.3089438,92.7487459 77.312568,92.683712 77.312568,92.6178728 L77.312568,88.1883224 C77.312568,87.0767066 76.4111545,86.1750917 75.2993373,86.1750917 L27.7815363,86.1750917 L27.7815363,67.6388325 L31.4713518,63.949017 L41.1646176,73.6426854 C41.5421361,74.0202039 42.0543532,74.2324197 42.5883154,74.2324197 C43.1222775,74.2324197 43.6344947,74.0202039 44.0120132,73.6426854 L46.8269925,70.8275048 C50.9366086,77.5298173 58.330535,82.0105089 66.7519157,82.0105089 C70.4077042,82.0105089 73.8698006,81.1654715 76.9537744,79.6614378 L86.1720715,88.8795336 L86.1720715,94.6307008 C86.1720715,97.0735979 84.1848141,99.0608553 81.7425211,99.0608553 Z M16.9104128,94.6313048 L16.9104128,90.2019557 L73.2859053,90.2019557 L73.2859053,92.6180742 C73.2859053,92.6839134 73.2895295,92.7489472 73.2957711,92.8131757 C73.2895295,92.8774042 73.2859053,92.942438 73.2859053,93.0082773 L73.2859053,94.6311035 C73.2859053,96.2545337 73.7465785,97.7718561 74.5428909,99.0610566 L21.3397619,99.0610566 C18.8974689,99.0608553 16.9104128,97.0737992 16.9104128,94.6313048 Z M47.4235724,58.6555029 C47.4235724,47.9978032 56.094216,39.3273609 66.7519157,39.3273609 C77.4096154,39.3273609 86.080259,47.9978032 86.080259,58.6555029 C86.080259,69.3134039 77.4096154,77.9838462 66.7519157,77.9838462 C59.433493,77.9838462 53.0523229,73.8953712 49.7720395,67.8826591 L61.4076631,56.2470355 L61.4076631,60.8149087 C61.4076631,61.9267259 62.3090766,62.8283407 63.4210951,62.8283407 C64.5329123,62.8283407 65.4343258,61.9267259 65.4343258,60.8149087 L65.4343258,51.1520458 C65.4343258,50.0402286 64.5329123,49.1386138 63.4210951,49.1386138 L53.7578295,49.1386138 C52.645811,49.1386138 51.7443975,50.0402286 51.7443975,51.1520458 C51.7443975,52.2636616 52.645811,53.1652765 53.7578295,53.1652765 L58.7944297,53.1652765 L48.1284749,63.8312312 C47.6698151,62.1834385 47.4235724,60.4476587 47.4235724,58.6555029 Z M100.887441,82.0535964 L87.7359042,68.9020598 C89.2534279,65.8066094 90.1071231,62.3292109 90.1071231,58.6555029 C90.1071231,45.7773904 79.6300282,35.3004968 66.7521171,35.3004968 C53.8742059,35.3004968 43.397111,45.7773904 43.397111,58.6555029 C43.397111,61.5999459 43.9461739,64.4179453 44.9450376,67.0148699 L42.5883154,69.3715921 L32.8950496,59.6779237 C32.5175311,59.3004052 32.005314,59.0881894 31.4713518,59.0881894 C30.9373897,59.0881894 30.4251726,59.3004052 30.0476541,59.6779237 L27.7815363,61.9440414 L27.7815363,43.558991 C27.7815363,42.4471738 26.8803242,41.5455589 25.7683056,41.5455589 C24.6562871,41.5455589 23.7548736,42.4471738 23.7548736,43.558991 L23.7548736,65.9709054 L5.55042804,84.1755524 C4.76418284,84.9617976 4.76418284,86.2367027 5.55042804,87.0231493 C5.94365132,87.4161712 6.45888857,87.6128835 6.97412582,87.6128835 C7.48936308,87.6128835 8.00480167,87.4161712 8.3978236,87.0231493 L23.7548736,71.6658979 L23.7548736,86.1754944 L14.8969808,86.1754944 C13.7851637,86.1754944 12.8837501,87.0771092 12.8837501,88.1887251 L12.8837501,94.6315062 C12.8837501,99.2944134 16.6770561,103.087719 21.3397619,103.087719 L81.7425211,103.087719 C86.4054283,103.087719 90.1987342,99.294212 90.1987342,94.6311035 L90.1987342,92.9027734 C91.6073313,94.2698938 93.4643196,95.0217093 95.4471475,95.0217093 C95.4596308,95.0217093 95.4723154,95.0215079 95.485,95.0215079 C97.5129287,95.0116421 99.4180381,94.2179472 100.849387,92.7865984 C103.818998,89.8171889 103.836112,85.0024689 100.887441,82.0535964 L100.887441,82.0535964 Z" id="Fill-11" fill="#0A090B" mask="url(#mask-2)"></path>
                <path d="M64.7384837,71.403145 C64.7384837,72.5149622 65.6398972,73.416577 66.7519157,73.416577 C74.8912146,73.416577 81.5129899,66.7948018 81.5129899,58.6557042 C81.5129899,57.5440884 80.6115763,56.6424735 79.4995578,56.6424735 C78.3875393,56.6424735 77.4861258,57.5440884 77.4861258,58.6557042 C77.4861258,64.574389 72.6708018,69.3899143 66.7519157,69.3899143 C65.6398972,69.3899143 64.7384837,70.2911265 64.7384837,71.403145" id="Fill-12" fill="#0A090B" mask="url(#mask-2)"></path>
                <path d="M8.25486993,34.6330441 L13.0869054,34.6330441 L13.0869054,27.7875766 L8.25486993,27.7875766 L8.25486993,34.6330441 Z M24.361722,34.6330441 L29.1937575,34.6330441 L29.1937575,14.9020144 L24.361722,14.9020144 L24.361722,34.6330441 Z M40.4840776,34.6330441 L45.7032961,34.6330441 L45.7032961,23.1568843 L40.4840776,23.1568843 L40.4840776,34.6330441 Z M2.01343202,38.6599082 L51.5676181,38.6599082 C52.6796367,38.6599082 53.5810502,37.7582933 53.5810502,36.6464762 C53.5810502,35.534659 52.6796367,34.6330441 51.5676181,34.6330441 L49.7301601,34.6330441 L49.7301601,21.1436536 C49.7301601,20.0318365 48.8287466,19.1302216 47.7167281,19.1302216 L38.4708469,19.1302216 C37.3588284,19.1302216 36.4574149,20.0318365 36.4574149,21.1436536 L36.4574149,34.6330441 L33.2206216,34.6330441 L33.2206216,12.8887837 C33.2206216,11.7769666 32.3192081,10.8753517 31.2071896,10.8753517 L22.34829,10.8753517 C21.2362715,10.8753517 20.3350593,11.7769666 20.3350593,12.8887837 L20.3350593,34.6330441 L17.1135681,34.6330441 L17.1135681,25.7743459 C17.1135681,24.6625288 16.2121546,23.7609139 15.1001361,23.7609139 L6.24143791,23.7609139 C5.12941941,23.7609139 4.22800589,24.6625288 4.22800589,25.7743459 L4.22800589,34.6330441 L2.01343202,34.6330441 C0.901413514,34.6330441 0,35.534659 0,36.6464762 C0,37.7582933 0.901413514,38.6599082 2.01343202,38.6599082 L2.01343202,38.6599082 Z" id="Fill-13" fill="#0A090B" mask="url(#mask-2)"></path>
            </g>
            <path d="M69,12.500075 C69,11.6717336 68.1273779,11 67.0506372,11 L51.9493628,11 C50.872817,11 50,11.6717336 50,12.500075 C50,13.3284164 50.872817,14 51.9493628,14 L67.0506372,14 C68.1273779,14 69,13.3284164 69,12.500075" id="Fill-15" fill="#0A090B"></path>
            <path d="M78.5605,11.439522 C78.2815,11.160508 77.8945,11 77.5,11 C77.1055,11 76.7185,11.160358 76.4395,11.439522 C76.1605,11.7186859 76,12.1055553 76,12.500075 C76,12.8945947 76.1605,13.2816141 76.4395,13.560478 C76.7185,13.839492 77.1055,14 77.5,14 C77.8945,14 78.2815,13.839642 78.5605,13.560478 C78.8395,13.2816141 79,12.8945947 79,12.500075 C79,12.1057053 78.8395,11.7186859 78.5605,11.439522" id="Fill-16" fill="#0A090B"></path>
            <path d="M56.9232354,19 C55.8610325,19 55,19.6717336 55,20.499925 C55,21.3282664 55.8610325,22 56.9232354,22 L60.0767646,22 C61.1389675,22 62,21.3282664 62,20.499925 C62,19.6717336 61.1389675,19 60.0767646,19 L56.9232354,19" id="Fill-17" fill="#0A090B"></path>
            <g id="Group-21" transform="translate(0.000000, 19.000000)">
                <mask id="mask-4" fill="white">
                    <use xlink:href="#path-3"></use>
                </mask>
                <g id="Clip-19"></g>
                <path d="M68.0002015,3.98028729 L77.9677582,3.98028729 C79.0807053,3.98028729 79.9828715,3.08963536 79.9828715,1.99133702 C79.9828715,0.893237569 79.0807053,0.00258563536 77.9677582,0.00258563536 L68.0002015,0.00258563536 C66.8872544,0.00258563536 65.9850882,0.893237569 65.9850882,1.99133702 C65.9850882,3.08963536 66.8872544,3.98028729 68.0002015,3.98028729" id="Fill-18" fill="#0A090B" mask="url(#mask-4)"></path>
                <path d="M2.01712846,67.9763536 C1.48513854,67.9763536 0.967254408,68.1891713 0.592443325,68.5593149 C0.215617128,68.9290608 0.00201511335,69.4422099 0.00201511335,69.9653039 C0.00201511335,70.4883978 0.215617128,71.001547 0.592443325,71.3714917 C0.967254408,71.7414365 1.48513854,71.9542541 2.01712846,71.9542541 C2.54710327,71.9542541 3.06478589,71.7416354 3.44161209,71.3714917 C3.81642317,71.001547 4.0320403,70.4883978 4.0320403,69.9653039 C4.0320403,69.4422099 3.81642317,68.9290608 3.44161209,68.5593149 C3.06680101,68.1893702 2.54710327,67.9763536 2.01712846,67.9763536" id="Fill-20" fill="#0A090B" mask="url(#mask-4)"></path>
            </g>
        </g>
    </g>
</svg>